<svg width="16" height="16" viewBox="0 0 16 16" fill="none" xmlns="http://www.w3.org/2000/svg">
<path d="M15.0237 0.109497H0.676526C0.331491 0.109497 0.0527344 0.388254 0.0527344 0.733289V15.0805C0.0527344 15.4255 0.331491 15.7043 0.676526 15.7043H15.0237C15.3688 15.7043 15.6475 15.4255 15.6475 15.0805V0.733289C15.6475 0.388254 15.3688 0.109497 15.0237 0.109497ZM5.04307 12.4294C5.04307 12.5152 4.97289 12.5853 4.88712 12.5853H3.32764C3.24187 12.5853 3.17169 12.5152 3.17169 12.4294V3.3844C3.17169 3.29863 3.24187 3.22846 3.32764 3.22846H4.88712C4.97289 3.22846 5.04307 3.29863 5.04307 3.3844V12.4294ZM8.78582 6.97121C8.78582 7.05698 8.71564 7.12715 8.62987 7.12715H7.07039C6.98462 7.12715 6.91444 7.05698 6.91444 6.97121V3.3844C6.91444 3.29863 6.98462 3.22846 7.07039 3.22846H8.62987C8.71564 3.22846 8.78582 3.29863 8.78582 3.3844V6.97121ZM12.5286 8.37474C12.5286 8.46051 12.4584 8.53069 12.3726 8.53069H10.8131C10.7274 8.53069 10.6572 8.46051 10.6572 8.37474V3.3844C10.6572 3.29863 10.7274 3.22846 10.8131 3.22846H12.3726C12.4584 3.22846 12.5286 3.29863 12.5286 3.3844V8.37474Z" fill="url(#paint0_radial_247_226)"/>
<defs>
<radialGradient id="paint0_radial_247_226" cx="0" cy="0" r="1" gradientUnits="userSpaceOnUse" gradientTransform="translate(7.85013 7.90689) rotate(90) scale(7.7974)">
<stop stop-color="#3EBAFF"/>
<stop offset="1" stop-color="#0083CC"/>
</radialGradient>
</defs>
</svg>
