<svg width="20" height="20" viewBox="0 0 20 20" fill="none" xmlns="http://www.w3.org/2000/svg">
<path d="M19.7777 3.42269C19.7777 4.10801 19.2332 4.74002 18.3157 5.2502C17.2077 5.86318 15.5554 6.29722 13.6593 6.42667C13.5184 6.35814 13.3776 6.29341 13.2291 6.2363C11.729 5.60809 9.73396 5.2502 7.59424 5.2502C7.27823 5.2502 6.96984 5.25782 6.66145 5.27305L6.61957 5.2502C5.702 4.74002 5.15755 4.10801 5.15755 3.42269C5.15755 1.73985 8.43185 0.376831 12.4676 0.376831C16.5034 0.376831 19.7777 1.73985 19.7777 3.42269ZM6.40255 6.51043C6.79089 6.48378 7.19066 6.46855 7.59424 6.46855C9.96239 6.46855 12.064 6.93685 13.4004 7.66405C14.3446 8.17804 14.9043 8.81767 14.9043 9.51441C14.9043 9.6667 14.8776 9.81518 14.8243 9.95986C14.6492 10.4624 14.1771 10.9231 13.4918 11.3115C13.488 11.3153 13.4804 11.3153 13.4766 11.3191C13.4651 11.3267 13.4537 11.3305 13.4423 11.3381C12.1097 12.0767 9.98524 12.5565 7.59424 12.5565C5.32508 12.5565 3.29577 12.1262 1.95179 11.4485C1.87945 11.4143 1.81092 11.3762 1.74238 11.3381C0.828627 10.8317 0.28418 10.1997 0.28418 9.51441C0.28418 8.18946 2.31729 7.05868 5.15755 6.64368C5.55732 6.58658 5.97232 6.54089 6.40255 6.51043ZM16.1226 9.51441C16.1226 8.6806 15.7191 7.99528 15.2051 7.4813C16.2826 7.31377 17.2686 7.04726 18.1063 6.70079C18.7269 6.4419 19.3056 6.12208 19.7777 5.72993V7.07772C19.7777 7.81253 19.1495 8.49024 18.1101 9.01565C17.5542 9.29739 16.8765 9.53725 16.115 9.72C16.1188 9.65147 16.1226 9.58675 16.1226 9.51821V9.51441ZM14.9043 13.1694C14.9043 13.8548 14.3599 14.4868 13.4423 14.997C13.3738 15.035 13.3052 15.0693 13.2329 15.1074C11.8927 15.7851 9.8634 16.2153 7.59424 16.2153C5.20324 16.2153 3.07875 15.7356 1.74619 14.997C0.828627 14.4868 0.28418 13.8548 0.28418 13.1694V11.8216C0.760095 12.2138 1.335 12.5336 1.95559 12.7925C3.45949 13.4207 5.45452 13.7786 7.59424 13.7786C9.73396 13.7786 11.729 13.4207 13.2329 12.7925C13.5299 12.6707 13.8154 12.5298 14.0857 12.3775C14.318 12.2481 14.535 12.1034 14.7406 11.9511C14.7977 11.9092 14.851 11.8635 14.9043 11.8216V13.1694ZM16.1226 13.1694V10.965C16.846 10.8051 17.5123 10.6033 18.1063 10.3558C18.7269 10.0969 19.3056 9.77711 19.7777 9.38496V10.7327C19.7777 11.1325 19.5873 11.5323 19.2104 11.9092C18.5898 12.5298 17.4971 13.04 16.115 13.3712C16.1188 13.3065 16.1226 13.238 16.1226 13.1694ZM7.59424 17.4336C9.73396 17.4336 11.729 17.0758 13.2329 16.4475C13.8535 16.1886 14.4322 15.8688 14.9043 15.4767V16.8245C14.9043 18.5073 11.63 19.8703 7.59424 19.8703C3.55848 19.8703 0.28418 18.5073 0.28418 16.8245V15.4767C0.760095 15.8688 1.335 16.1886 1.95559 16.4475C3.45949 17.0758 5.45452 17.4336 7.59424 17.4336Z" fill="url(#paint0_radial_247_212)"/>
<defs>
<radialGradient id="paint0_radial_247_212" cx="0" cy="0" r="1" gradientUnits="userSpaceOnUse" gradientTransform="translate(10.0309 10.1236) rotate(90) scale(9.74675)">
<stop stop-color="#3EBAFF"/>
<stop offset="1" stop-color="#0083CC"/>
</radialGradient>
</defs>
</svg>
