<svg width="21" height="18" viewBox="0 0 21 18" fill="none" xmlns="http://www.w3.org/2000/svg">
<path d="M10.6335 0.676025L0.886719 9.4481H3.81074V17.2455H17.4562V9.4481H20.3802L10.6335 0.676025ZM10.6335 6.03674C12.9142 6.03674 14.9805 6.94318 16.4815 8.41494L15.3119 9.56506C14.0651 8.3378 12.3829 7.65441 10.6335 7.66444C8.80108 7.66444 7.14413 8.3857 5.95503 9.56506L4.78542 8.41494C6.34691 6.88513 8.44748 6.0309 10.6335 6.03674ZM10.6335 9.2824C11.998 9.2824 13.2358 9.82822 14.1423 10.7152L12.9727 11.8555C12.3475 11.2452 11.5072 10.9055 10.6335 10.9101C9.71727 10.9101 8.8888 11.2707 8.29425 11.8555L7.12464 10.7152C8.06091 9.79563 9.32115 9.28103 10.6335 9.2824ZM10.6335 12.5378C11.5497 12.5378 12.2904 13.2591 12.2904 14.1558C12.2904 15.0525 11.5497 15.7835 10.6335 15.7835C9.71727 15.7835 8.97652 15.0525 8.97652 14.1558C8.97652 13.2591 9.71727 12.5378 10.6335 12.5378Z" fill="url(#paint0_radial_247_234)"/>
<defs>
<radialGradient id="paint0_radial_247_234" cx="0" cy="0" r="1" gradientUnits="userSpaceOnUse" gradientTransform="translate(10.6335 8.96076) rotate(90) scale(8.28474 9.74675)">
<stop stop-color="#3EBAFF"/>
<stop offset="1" stop-color="#0083CC"/>
</radialGradient>
</defs>
</svg>
