<svg width="31" height="31" viewBox="0 0 31 31" fill="none" xmlns="http://www.w3.org/2000/svg">
<g clip-path="url(#clip0_675_722)">
<g clip-path="url(#clip1_675_722)">
<path d="M29 0H2C0.89543 0 0 0.89543 0 2V29C0 30.1046 0.89543 31 2 31H29C30.1046 31 31 30.1046 31 29V2C31 0.89543 30.1046 0 29 0Z" fill="#3B5998"/>
<path fill-rule="evenodd" clip-rule="evenodd" d="M17.9881 10.9801L18.3001 9.00012C17.5008 8.94572 16.6986 8.95174 15.9001 9.01812C15.3433 9.09225 14.8343 9.37188 14.4731 9.80212C14.1326 10.2636 13.9639 10.8295 13.9961 11.4021V13.9941L11.9961 13.9791V15.9861L13.9961 15.9931V21.9931L16.0091 21.9881V15.9881H18.3831L18.6931 13.9811H16.0101C16.0101 13.9811 16.0101 11.6961 16.0101 11.4721C16.019 11.3946 16.0438 11.3199 16.0831 11.2525C16.1224 11.1851 16.1753 11.1267 16.2384 11.0809C16.3015 11.0351 16.3735 11.0029 16.4497 10.9864C16.5259 10.9699 16.6048 10.9695 16.6812 10.9851C17.1222 10.9791 17.9881 10.9801 17.9881 10.9801Z" fill="white"/>
</g>
</g>
<defs>
<clipPath id="clip0_675_722">
<rect width="31" height="31" fill="white"/>
</clipPath>
<clipPath id="clip1_675_722">
<rect width="435" height="155" fill="white" transform="translate(-82 -2)"/>
</clipPath>
</defs>
</svg>
