<svg width="31" height="31" viewBox="0 0 31 31" fill="none" xmlns="http://www.w3.org/2000/svg">
<g clip-path="url(#clip0_675_856)">
<g clip-path="url(#clip1_675_856)">
<path d="M29 0H2C0.89543 0 0 0.89543 0 2V29C0 30.1046 0.89543 31 2 31H29C30.1046 31 31 30.1046 31 29V2C31 0.89543 30.1046 0 29 0Z" fill="url(#paint0_linear_675_856)"/>
<path fill-rule="evenodd" clip-rule="evenodd" d="M12 8H19C20.0609 8 21.0782 8.42142 21.8284 9.17157C22.5785 9.92172 23 10.9391 23 12V19C23 20.0609 22.5785 21.0783 21.8284 21.8284C21.0782 22.5786 20.0609 23 19 23H12C10.9391 23 9.92172 22.5786 9.17157 21.8284C8.42142 21.0783 8 20.0609 8 19V12C8 10.9391 8.42142 9.92172 9.17157 9.17157C9.92172 8.42142 10.9391 8 12 8ZM12 10H19C19.5304 10 20.0391 10.2107 20.4142 10.5858C20.7893 10.9609 21 11.4696 21 12V19C21 19.5304 20.7893 20.0391 20.4142 20.4142C20.0391 20.7893 19.5304 21 19 21H12C11.4696 21 10.9609 20.7893 10.5858 20.4142C10.2107 20.0391 10 19.5304 10 19V12C10 11.4696 10.2107 10.9609 10.5858 10.5858C10.9609 10.2107 11.4696 10 12 10ZM15.5 12C16.1922 12 16.8689 12.2053 17.4445 12.5898C18.0201 12.9744 18.4687 13.5211 18.7336 14.1606C18.9985 14.8002 19.0678 15.5039 18.9327 16.1828C18.7977 16.8618 18.4643 17.4854 17.9749 17.9749C17.4854 18.4644 16.8617 18.7977 16.1828 18.9327C15.5039 19.0678 14.8001 18.9985 14.1606 18.7336C13.521 18.4687 12.9744 18.0201 12.5898 17.4445C12.2053 16.8689 12 16.1922 12 15.5C12 14.5717 12.3688 13.6815 13.0251 13.0251C13.6815 12.3687 14.5717 12 15.5 12ZM15.5 14C15.7967 14 16.0867 14.088 16.3334 14.2528C16.58 14.4176 16.7723 14.6519 16.8858 14.926C16.9993 15.2001 17.0291 15.5017 16.9712 15.7926C16.9133 16.0836 16.7704 16.3509 16.5607 16.5607C16.3509 16.7704 16.0836 16.9133 15.7927 16.9712C15.5017 17.0291 15.2001 16.9994 14.926 16.8858C14.6519 16.7723 14.4176 16.58 14.2528 16.3333C14.088 16.0867 14 15.7967 14 15.5C14 15.1022 14.158 14.7206 14.4393 14.4393C14.7206 14.158 15.1022 14 15.5 14Z" fill="white"/>
</g>
</g>
<defs>
<linearGradient id="paint0_linear_675_856" x1="23.252" y1="2.06451e-07" x2="7.748" y2="31" gradientUnits="userSpaceOnUse">
<stop stop-color="#9E42B4"/>
<stop offset="0.067" stop-color="#9E42B4"/>
<stop offset="0.473" stop-color="#E5566F"/>
<stop offset="1" stop-color="#FDC76D"/>
</linearGradient>
<clipPath id="clip0_675_856">
<rect width="31" height="31" fill="white"/>
</clipPath>
<clipPath id="clip1_675_856">
<rect width="435" height="155" fill="white" transform="translate(-122 -122)"/>
</clipPath>
</defs>
</svg>
