<svg width="31" height="31" viewBox="0 0 31 31" fill="none" xmlns="http://www.w3.org/2000/svg">
<path d="M29 0H2C0.89543 0 0 0.89543 0 2V29C0 30.1046 0.89543 31 2 31H29C30.1046 31 31 30.1046 31 29V2C31 0.89543 30.1046 0 29 0Z" fill="#6695BD"/>
<path fill-rule="evenodd" clip-rule="evenodd" d="M16.9939 11.7699V15.0269C16.9904 15.0807 16.9997 15.1346 17.0211 15.1841C17.0425 15.2336 17.0753 15.2773 17.1169 15.3115C17.1586 15.3458 17.2077 15.3697 17.2604 15.3813C17.313 15.3928 17.3677 15.3916 17.4199 15.3779C17.7199 15.3569 18.3979 12.5779 18.6989 11.9719C18.8586 11.6302 19.1153 11.343 19.4369 11.1459C19.5382 11.0541 19.6675 10.9991 19.8039 10.9899H22.6819C22.7594 11.0032 22.8323 11.036 22.8937 11.0852C22.9551 11.1343 23.003 11.1983 23.033 11.271C23.063 11.3437 23.074 11.4229 23.0651 11.5011C23.0561 11.5792 23.0275 11.6538 22.9819 11.7179C22.7569 12.2179 20.8269 15.3279 20.7269 15.4539C20.6065 15.6165 20.5254 15.8047 20.4899 16.0039C20.5292 16.2393 20.6378 16.4576 20.8019 16.6309C21.0019 16.8569 22.6179 18.6359 22.7689 18.7859C22.9112 18.9493 23.0063 19.1485 23.0439 19.3619C23.0078 19.5439 22.9068 19.7065 22.7595 19.8193C22.6123 19.9321 22.429 19.9874 22.2439 19.9749C21.6179 19.9749 20.0779 19.9749 19.9019 19.9749C19.5501 19.8518 19.2265 19.6597 18.9499 19.4099C18.7249 19.2099 17.8909 18.2579 17.7659 18.1329C17.7236 18.082 17.6695 18.0422 17.6083 18.017C17.5472 17.9917 17.4807 17.9817 17.4149 17.9879C17.2649 17.9879 16.9799 18.0029 16.9929 18.5729C17.0287 18.9678 16.9459 19.3644 16.7549 19.7119C16.6572 19.8055 16.5415 19.8782 16.4148 19.9255C16.2881 19.9728 16.153 19.9937 16.0179 19.9869C14.995 20.0489 13.9778 19.7951 13.1039 19.2599C11.5299 18.2829 9.73787 15.6719 8.90387 14.0059C8.4064 13.1788 8.09902 12.2514 8.00391 11.2909C8.05391 11.1149 8.05386 10.9909 8.22986 10.9909C8.40586 10.9909 10.6189 10.9909 10.8299 10.9909C10.976 11.0633 11.0979 11.1765 11.1809 11.3169C11.2559 11.4169 11.8279 13.1289 12.0029 13.4299C12.1779 13.7309 13.0409 15.3799 13.5089 15.3799C13.6642 15.3494 13.8013 15.2587 13.8901 15.1276C13.9789 14.9964 14.0122 14.8355 13.9828 14.6799C13.9828 14.2799 13.9828 12.7009 13.9828 12.4999C13.7923 12.0567 13.4437 11.7003 13.0049 11.4999C13.1142 11.3547 13.2537 11.2348 13.4137 11.1485C13.5737 11.0622 13.7505 11.0115 13.9319 10.9999C14.5319 10.9749 16.0369 10.9749 16.3619 11.0239C16.5363 11.0579 16.694 11.1503 16.8088 11.2859C16.9237 11.4215 16.989 11.5922 16.9939 11.7699Z" fill="white"/>
</svg>
