<svg width="26" height="26" viewBox="0 0 26 26" fill="none" xmlns="http://www.w3.org/2000/svg">
<path fill-rule="evenodd" clip-rule="evenodd" d="M13 0C5.8201 0 0 5.8201 0 13C0 15.457 0.6825 17.758 1.8694 19.7184L0.7098 23.66C0.64322 23.8863 0.638839 24.1264 0.697118 24.355C0.755396 24.5835 0.874182 24.7922 1.04099 24.959C1.20779 25.1258 1.41646 25.2446 1.64504 25.3029C1.87363 25.3612 2.11369 25.3568 2.34 25.2902L6.2816 24.1306C8.30788 25.3566 10.6317 26.0032 13 26C20.1799 26 26 20.1799 26 13C26 5.8201 20.1799 0 13 0ZM10.0594 15.9419C12.6893 18.5705 15.1996 18.9176 16.0862 18.9501C17.4343 18.9995 18.7473 17.9699 19.2582 16.7752C19.3227 16.6266 19.3461 16.4634 19.326 16.3026C19.3059 16.1418 19.2429 15.9894 19.1438 15.8613C18.4314 14.9513 17.4681 14.2974 16.5269 13.6474C16.3304 13.5115 16.0889 13.457 15.8531 13.4953C15.6173 13.5336 15.4054 13.6617 15.262 13.8528L14.482 15.0423C14.441 15.1062 14.3771 15.1521 14.3034 15.1705C14.2297 15.1888 14.1517 15.1783 14.0855 15.1411C13.5564 14.8382 12.7855 14.3234 12.2317 13.7696C11.6779 13.2158 11.1943 12.48 10.9226 11.9847C10.8889 11.9218 10.8792 11.8488 10.8952 11.7792C10.9112 11.7097 10.9519 11.6483 11.0097 11.6064L12.2109 10.7146C12.3823 10.5655 12.493 10.3587 12.5217 10.1333C12.5505 9.90799 12.4954 9.67994 12.3669 9.4926C11.7845 8.6398 11.1059 7.5556 10.1218 6.8367C9.9948 6.74467 9.84602 6.68728 9.69011 6.67018C9.5342 6.65309 9.37653 6.67687 9.2326 6.7392C8.0366 7.2514 7.0018 8.5644 7.0512 9.9151C7.0837 10.8017 7.4308 13.312 10.0594 15.9419Z" fill="#008DDB"/>
</svg>
