<svg width="31" height="31" viewBox="0 0 31 31" fill="none" xmlns="http://www.w3.org/2000/svg">
<g clip-path="url(#clip0_675_990)">
<g clip-path="url(#clip1_675_990)">
<path d="M29 0H2C0.89543 0 0 0.89543 0 2V29C0 30.1046 0.89543 31 2 31H29C30.1046 31 31 30.1046 31 29V2C31 0.89543 30.1046 0 29 0Z" fill="#E62117"/>
<path fill-rule="evenodd" clip-rule="evenodd" d="M19.0002 22H12.0002C10.8956 21.954 9.85437 21.472 9.10459 20.6596C8.35481 19.8472 7.95765 18.7707 8.00016 17.666V13.333C7.95792 12.2285 8.35521 11.1523 9.10496 10.3401C9.85471 9.52792 10.8958 9.04603 12.0002 9H19.0002C20.1046 9.04577 21.1459 9.52759 21.8957 10.3398C22.6455 11.152 23.0427 12.2284 23.0002 13.333V17.666C23.0429 18.7707 22.6459 19.8474 21.896 20.6599C21.1462 21.4723 20.1048 21.9542 19.0002 22ZM21.0002 13.255C21.0308 12.6925 20.8377 12.1408 20.463 11.7202C20.0883 11.2996 19.5624 11.0443 19.0002 11.01H12.0002C11.4379 11.0443 10.912 11.2996 10.5373 11.7202C10.1626 12.1408 9.96954 12.6925 10.0002 13.255V17.744C9.96954 18.3065 10.1626 18.8582 10.5373 19.2788C10.912 19.6994 11.4379 19.9547 12.0002 19.989H19.0002C19.5624 19.9547 20.0883 19.6994 20.463 19.2788C20.8377 18.8582 21.0308 18.3065 21.0002 17.744V13.255ZM14.0002 12.987L18.0002 15.5L14.0002 18.011V12.987Z" fill="white"/>
</g>
</g>
<defs>
<clipPath id="clip0_675_990">
<rect width="31" height="31" fill="white"/>
</clipPath>
<clipPath id="clip1_675_990">
<rect width="435" height="155" fill="white" transform="translate(-82 -122)"/>
</clipPath>
</defs>
</svg>
