<svg width="46" height="39" viewBox="0 0 46 39" fill="none" xmlns="http://www.w3.org/2000/svg">
<path d="M22.613 0L0 20.3517H6.7839V38.4421H38.4421V20.3517H45.226L22.613 0ZM22.613 12.4372C27.9044 12.4372 32.6984 14.5402 36.1808 17.9547L33.4672 20.6231C30.5746 17.7757 26.6718 16.1902 22.613 16.2135C18.3618 16.2135 14.5175 17.8869 11.7588 20.6231L9.0452 17.9547C12.6679 14.4055 17.5414 12.4236 22.613 12.4372ZM22.613 19.9673C25.7788 19.9673 28.6507 21.2336 30.7537 23.2914L28.0401 25.9371C26.5897 24.521 24.64 23.7331 22.613 23.7437C20.4874 23.7437 18.5653 24.5803 17.1859 25.9371L14.4723 23.2914C16.6445 21.158 19.5684 19.9641 22.613 19.9673ZM22.613 27.52C24.7386 27.52 26.4572 29.1934 26.4572 31.2738C26.4572 33.3542 24.7386 35.0502 22.613 35.0502C20.4874 35.0502 18.7688 33.3542 18.7688 31.2738C18.7688 29.1934 20.4874 27.52 22.613 27.52Z" fill="url(#paint0_radial_247_49)"/>
<defs>
<radialGradient id="paint0_radial_247_49" cx="0" cy="0" r="1" gradientUnits="userSpaceOnUse" gradientTransform="translate(22.613 19.2211) rotate(90) scale(19.2211 22.613)">
<stop stop-color="#3EBAFF"/>
<stop offset="1" stop-color="#0083CC"/>
</radialGradient>
</defs>
</svg>
