<svg width="46" height="42" viewBox="0 0 46 42" fill="none" xmlns="http://www.w3.org/2000/svg">
<path d="M31.8744 8.82835e-05L0 8.03353L7.52262 41.2494L45.226 29.6146L31.8744 8.82835e-05ZM41.1246 27.6758L36.057 29.2084L34.6583 21.5899L33.5197 21.8791L27.9036 7.91296L32.1234 6.79379L41.1246 27.6758ZM31.8282 6.10922L27.6209 7.20984L26.2119 3.70597L30.3368 2.64917L31.8282 6.10922ZM25.4197 3.90896L26.8087 7.42228L11.4183 11.448L11.1199 10.4784L4.26432 13.7281L3.25115 9.58941L25.4197 3.90896ZM9.96474 37.107L6.49196 22.9129L20.6598 18.9902L25.2016 32.477L9.96474 37.107ZM24.2247 13.0124L5.34303 18.1346L4.27792 13.7839L11.9145 13.1293L11.6234 12.2312L27.0882 8.12928L32.639 22.1695L31.4587 22.5437L35.9526 29.24L30.7355 30.8179L24.2247 13.0124ZM13.123 31.4196C10.1986 29.7336 10.3541 25.5327 13.4023 23.904C16.3794 22.3131 20.0104 23.7876 20.1966 27.5106C20.371 30.997 16.0475 33.1055 13.123 31.4196H13.123ZM19.5291 27.3894C19.2637 24.2512 16.2804 22.9998 13.687 24.3856C11.0317 25.8044 11.0488 29.5152 13.6204 30.941C16.032 32.2781 19.7999 30.592 19.5291 27.3894ZM14.245 29.9121L14.6682 25.7972L15.5373 25.5204L18.0061 28.7046L17.3367 29.0767L16.6268 28.1783L15.0831 28.6299L15.0142 29.6891L14.245 29.9121ZM15.1142 27.997L16.2783 27.6487L15.2451 26.261L15.1142 27.997Z" fill="url(#paint0_radial_247_55)"/>
<defs>
<radialGradient id="paint0_radial_247_55" cx="0" cy="0" r="1" gradientUnits="userSpaceOnUse" gradientTransform="translate(22.613 20.6247) rotate(90) scale(20.6247 22.613)">
<stop stop-color="#3EBAFF"/>
<stop offset="1" stop-color="#0083CC"/>
</radialGradient>
</defs>
</svg>
