<svg width="46" height="42" viewBox="0 0 46 42" fill="none" xmlns="http://www.w3.org/2000/svg">
<path d="M24.7445 0.882696C24.1791 0.317506 23.4124 0 22.613 0C21.8136 0 21.0469 0.317506 20.4815 0.882696L0.442067 20.9191C0.301915 21.0593 0.190739 21.2257 0.114889 21.4088C0.0390395 21.5919 0 21.7882 0 21.9864C0 22.1846 0.0390395 22.3809 0.114889 22.564C0.190739 22.7471 0.301915 22.9135 0.442067 23.0536C0.725118 23.3367 1.10902 23.4957 1.50931 23.4957C1.70752 23.4957 1.90378 23.4567 2.0869 23.3808C2.27002 23.305 2.4364 23.1938 2.57655 23.0536L22.613 3.01417L42.6495 23.0536C42.9325 23.3367 43.3164 23.4957 43.7167 23.4957C44.117 23.4957 44.5009 23.3367 44.7839 23.0536C45.067 22.7706 45.226 22.3867 45.226 21.9864C45.226 21.5861 45.067 21.2022 44.7839 20.9191L37.6871 13.8253V3.89751C37.6871 3.49772 37.5283 3.11431 37.2456 2.83161C36.9629 2.54892 36.5795 2.3901 36.1797 2.3901H33.1648C32.7651 2.3901 32.3816 2.54892 32.0989 2.83161C31.8163 3.11431 31.6574 3.49772 31.6574 3.89751V7.79566L24.7445 0.882696Z" fill="url(#paint0_radial_247_67)"/>
<path d="M22.6143 6.28821L40.7031 24.3771V37.0604C40.7031 38.2598 40.2267 39.41 39.3786 40.2581C38.5305 41.1062 37.3803 41.5826 36.1809 41.5826H9.04761C7.84824 41.5826 6.698 41.1062 5.84992 40.2581C5.00184 39.41 4.52539 38.2598 4.52539 37.0604V24.3771L22.6143 6.28821Z" fill="url(#paint1_radial_247_67)"/>
<defs>
<radialGradient id="paint0_radial_247_67" cx="0" cy="0" r="1" gradientUnits="userSpaceOnUse" gradientTransform="translate(22.613 11.7478) rotate(90) scale(11.7478 22.613)">
<stop stop-color="#3EBAFF"/>
<stop offset="1" stop-color="#0083CC"/>
</radialGradient>
<radialGradient id="paint1_radial_247_67" cx="0" cy="0" r="1" gradientUnits="userSpaceOnUse" gradientTransform="translate(22.6143 23.9354) rotate(90) scale(17.6472 18.0889)">
<stop stop-color="#3EBAFF"/>
<stop offset="1" stop-color="#0083CC"/>
</radialGradient>
</defs>
</svg>
