<svg width="18" height="16" viewBox="0 0 18 16" fill="none" xmlns="http://www.w3.org/2000/svg">
<path d="M15.7502 13.9894L12.4929 11.0962M12.4929 11.0962C13.0501 10.6013 13.492 10.0138 13.7936 9.3672C14.0951 8.7206 14.2503 8.02758 14.2503 7.3277C14.2503 6.62782 14.0951 5.9348 13.7936 5.2882C13.492 4.6416 13.0501 4.05408 12.4929 3.5592C11.9357 3.06431 11.2743 2.67174 10.5463 2.40391C9.81834 2.13608 9.03811 1.99823 8.25015 1.99823C7.4622 1.99823 6.68197 2.13608 5.954 2.40391C5.22602 2.67174 4.56457 3.06431 4.0074 3.5592C2.88216 4.55867 2.25 5.91424 2.25 7.3277C2.25 8.74116 2.88216 10.0967 4.0074 11.0962C5.13265 12.0957 6.65881 12.6572 8.25015 12.6572C9.8415 12.6572 11.3677 12.0957 12.4929 11.0962Z" stroke="#008DDB" stroke-width="1.5" stroke-linecap="round" stroke-linejoin="round"/>
</svg>
