<svg width="11" height="7" viewBox="0 0 11 7" fill="none" xmlns="http://www.w3.org/2000/svg">
<path d="M6.45925 3.55579C6.48234 3.57889 6.49388 3.60544 6.49388 3.63546C6.49388 3.66548 6.48234 3.69203 6.45925 3.71512L4.84518 5.32919C4.82209 5.35228 4.79553 5.36383 4.76551 5.36383C4.73549 5.36383 4.70894 5.35228 4.68585 5.32919L4.51266 5.15601C4.48957 5.13292 4.47803 5.10636 4.47803 5.07635C4.47803 5.04633 4.48957 5.01977 4.51266 4.99668L5.87389 3.63546L4.51266 2.27424C4.48957 2.25115 4.47803 2.22459 4.47803 2.19457C4.47803 2.16455 4.48957 2.138 4.51266 2.11491L4.68585 1.94172C4.70894 1.91863 4.73549 1.90709 4.76551 1.90709C4.79553 1.90709 4.82209 1.91863 4.84518 1.94172L6.45925 3.55579Z" fill="#8A8A8A"/>
</svg>
